<?xml version="1.0"?>
<svg xmlns="http://www.w3.org/2000/svg" viewBox="0 0 64 64" width="512" height="512"><g id="Pipe-Plumbering-Home_Repair-Water-Blocked" data-name="Pipe-Plumbering-Home Repair-Water-Blocked"><path d="M61,20H51.816A3,3,0,0,0,49,18H47a3,3,0,0,0-2.816,2H43A17.006,17.006,0,0,0,26.042,36.171,3,3,0,0,0,24,39v2a3,3,0,0,0,2,2.816V45a5,5,0,0,1-10,0V9.816A3,3,0,0,0,18,7V5a3,3,0,0,0-3-3H5A3,3,0,0,0,2,5V7A3,3,0,0,0,4,9.816V45a17,17,0,0,0,34,0V43.816A3,3,0,0,0,40,41V39a3,3,0,0,0-1.92-2.791A5,5,0,0,1,43,32h1.184A3,3,0,0,0,47,34h2a3,3,0,0,0,2.816-2H61a1,1,0,0,0,1-1V21A1,1,0,0,0,61,20ZM36,45c0,.368-.029.729-.055,1.091a4.609,4.609,0,0,0-3.119,2.325c-.7.98-1.136,1.534-1.976,1.534s-1.275-.553-1.973-1.531a8.618,8.618,0,0,0-1.176-1.4A6.959,6.959,0,0,0,28,45V44h8ZM23,54a2,2,0,1,1-2-2A2,2,0,0,1,23,54Zm2,5a1,1,0,1,1,1-1A1,1,0,0,1,25,59Zm-7-1a1,1,0,1,1-1-1A1,1,0,0,1,18,58ZM4,5A1,1,0,0,1,5,4H15a1,1,0,0,1,1,1V7a1,1,0,0,1-1,1H5A1,1,0,0,1,4,7Zm2,5h8V44.162a3.567,3.567,0,0,0-.86-.112c-1.911,0-2.851,1.315-3.605,2.372C8.838,47.4,8.4,47.95,7.57,47.95a1.732,1.732,0,0,1-1.4-.782A15.049,15.049,0,0,1,6,45V10Zm.826,39.867a3.628,3.628,0,0,0,.744.083c1.9,0,2.84-1.312,3.593-2.366.7-.98,1.136-1.534,1.977-1.534a1.476,1.476,0,0,1,1.009.382,7.017,7.017,0,0,0,3.891,4.9A3.965,3.965,0,0,0,17,54a3.913,3.913,0,0,0,.147,1.015c-.05,0-.1-.015-.147-.015a3,3,0,0,0-3,3c0,.092.019.179.027.27A15.064,15.064,0,0,1,6.826,49.867ZM19.3,59.9A2.969,2.969,0,0,0,20,58c0-.05-.012-.1-.015-.147a3.578,3.578,0,0,0,2.03,0c0,.05-.015.1-.015.147a2.969,2.969,0,0,0,.7,1.9,14.015,14.015,0,0,1-3.392,0Zm8.669-1.627c.008-.091.027-.178.027-.27a3,3,0,0,0-3-3c-.05,0-.1.012-.147.015A3.913,3.913,0,0,0,25,54a3.965,3.965,0,0,0-1.04-2.666,7.042,7.042,0,0,0,2.815-2.386c.159.2.315.41.474.633.753,1.056,1.69,2.369,3.6,2.369s2.849-1.315,3.6-2.372A4.667,4.667,0,0,1,35.622,48.3,15.042,15.042,0,0,1,27.973,58.27ZM38,41a1,1,0,0,1-1,1H27a1,1,0,0,1-1-1V39a1,1,0,0,1,1-1H37a1,1,0,0,1,1,1Zm-1.92-5H28.051A15.006,15.006,0,0,1,43,22h1v8H43A7.006,7.006,0,0,0,36.08,36ZM49,32H47a1,1,0,0,1-1-1V21a1,1,0,0,1,1-1h2a1,1,0,0,1,1,1V31A1,1,0,0,1,49,32Zm11-2H52V22h8Z"/><rect x="12" y="51" width="2" height="2"/></g></svg>
