<?xml version="1.0"?>
<svg xmlns="http://www.w3.org/2000/svg" width="512" height="512" viewBox="0 0 128 128"><g><path d="M88.5,35.25A24.5,24.5,0,1,0,64,59.75,24.528,24.528,0,0,0,88.5,35.25ZM46.767,47.218l1-.578a1.75,1.75,0,0,0-1.75-3.03l-1,.575A20.8,20.8,0,0,1,43.089,37H44.25a1.75,1.75,0,0,0,0-3.5H43.089a20.8,20.8,0,0,1,1.935-7.185l1,.575a1.735,1.735,0,0,0,2.39-.64,1.739,1.739,0,0,0-.64-2.39l-1-.578a21.174,21.174,0,0,1,5.265-5.265l.578,1a1.75,1.75,0,0,0,3.03-1.75l-.575-1a20.8,20.8,0,0,1,7.185-1.935V15.5a1.75,1.75,0,0,0,3.5,0V14.339a20.8,20.8,0,0,1,7.185,1.935l-.575,1a1.75,1.75,0,1,0,3.03,1.75l.578-1a21.174,21.174,0,0,1,5.265,5.265l-1,.578a1.754,1.754,0,0,0,.88,3.27,1.759,1.759,0,0,0,.87-.24l1-.575A20.8,20.8,0,0,1,84.911,33.5H83.75a1.75,1.75,0,0,0,0,3.5h1.161a20.8,20.8,0,0,1-1.935,7.185l-1-.575a1.75,1.75,0,0,0-1.75,3.03l1,.578a20.956,20.956,0,0,1-34.466,0Z"/><path d="M61.625,39.364a4.754,4.754,0,0,0,6.489-1.739h0c.894-1.551,2.618-9.254,3.125-11.578a1.75,1.75,0,0,0-2.888-1.668c-1.759,1.6-7.569,6.945-8.465,8.5A4.757,4.757,0,0,0,61.625,39.364Zm1.29-4.734a38.31,38.31,0,0,1,3.606-3.747,38.578,38.578,0,0,1-1.44,5,1.25,1.25,0,0,1-2.166-1.248Z"/><path d="M71.75,47.065A1.751,1.751,0,0,0,70,45.315H58a1.75,1.75,0,0,0,0,3.5H70A1.751,1.751,0,0,0,71.75,47.065Z"/><path d="M121.5,85.25h-6A1.751,1.751,0,0,0,113.75,87v2.75h-28.3a7.757,7.757,0,0,0-7.543-6H71.75v-12H74.5A1.751,1.751,0,0,0,76.25,70V63.173a30.5,30.5,0,1,0-24.5,0V70a1.751,1.751,0,0,0,1.75,1.75h2.75v12H50.1a7.757,7.757,0,0,0-7.543,6H14.25V87a1.751,1.751,0,0,0-1.75-1.75h-6A1.751,1.751,0,0,0,4.75,87v33a1.751,1.751,0,0,0,1.75,1.75h6A1.751,1.751,0,0,0,14.25,120v-2.75h28.3a7.757,7.757,0,0,0,7.543,6H77.9a7.757,7.757,0,0,0,7.543-6h28.3V120a1.751,1.751,0,0,0,1.75,1.75h6a1.751,1.751,0,0,0,1.75-1.75V87A1.751,1.751,0,0,0,121.5,85.25ZM37,35.25a27,27,0,1,1,27,27A27.03,27.03,0,0,1,37,35.25ZM55.25,64.465a30.433,30.433,0,0,0,17.5,0V68.25H55.25Zm4.5,7.285h8.5v12h-8.5Zm-49,46.5H8.25V88.75h2.5Zm3.5-25h28.1v20.5H14.25Zm67.9,22.25a4.255,4.255,0,0,1-4.25,4.25H50.1a4.255,4.255,0,0,1-4.25-4.25v-24a4.255,4.255,0,0,1,4.25-4.25H77.9a4.255,4.255,0,0,1,4.25,4.25Zm3.5-1.75V93.25h28.1v20.5Zm34.1,4.5h-2.5V88.75h2.5Z"/><path d="M77.9,103.082a1.75,1.75,0,0,0-1.75,1.75v6.5a1.75,1.75,0,0,0,3.5,0v-6.5A1.751,1.751,0,0,0,77.9,103.082Z"/></g></svg>
