<?xml version="1.0"?>
<svg xmlns="http://www.w3.org/2000/svg" id="Layer_1" data-name="Layer 1" viewBox="0 0 512 512" width="512" height="512"><path d="M337.164,284.683H318.525a6,6,0,0,0,0,12h18.639a6,6,0,0,0,0-12Z"/><path d="M427.5,258.2H274.271V83.269a35.154,35.154,0,0,1,70.307,0v36.2H341.6a6,6,0,0,0-6,6v22a6,6,0,0,0,6,6h44.894a6,6,0,0,0,6-6v-22a6,6,0,0,0-6-6h-2.979v-36.2a74.09,74.09,0,1,0-148.18,0v95.272H205.417a6,6,0,0,0-6,6v5.194H176.4V171.072a6,6,0,0,0-12,0v73.819a6,6,0,1,0,12,0V226.875h23.016v4.548a6,6,0,0,0,6,6h29.918V258.2H84.5a19.229,19.229,0,0,0-1.283,38.416v22.47a81.544,81.544,0,0,0,81.451,81.451h30.562v18.117a16.018,16.018,0,0,0,16,16h3.9v27.3a40.868,40.868,0,1,0,81.736,0v-27.3h3.9a16.018,16.018,0,0,0,16-16V400.539H347.33a81.544,81.544,0,0,0,81.451-81.451v-22.47A19.229,19.229,0,0,0,427.5,258.2ZM199.417,214.875H176.4v-13.14h23.016Zm181.077-73.407H347.6v-10h32.894Zm-133.159-58.2a62.09,62.09,0,1,1,124.18,0v36.2H356.578v-36.2a47.154,47.154,0,0,0-94.307,0V258.2H247.335ZM211.417,225.423V190.541h23.918v34.882Zm-.185,197.233a4,4,0,0,1-4-4V400.539h23.915v22.117Zm73.636,39.3a28.868,28.868,0,1,1-57.736,0v-27.3h57.736Zm-41.721-39.3V400.539h25.706v22.117Zm61.622-4a4,4,0,0,1-4,4H280.853V400.539h23.916ZM427.5,284.683H357.73a6,6,0,0,0,0,12h59.051v22.405a69.53,69.53,0,0,1-69.451,69.451H164.67a69.53,69.53,0,0,1-69.451-69.451V296.683H298.6a6,6,0,0,0,0-12H84.5a7.241,7.241,0,1,1,0-14.481h343a7.241,7.241,0,0,1,0,14.481Z"/></svg>
