<svg height="512" viewBox="0 0 512 512" width="512" xmlns="http://www.w3.org/2000/svg"><g id="filled_outline" data-name="filled outline"><path d="m24 168h464v48h-464z" fill="#007af6"/><path d="m320 216h56v32h-56z" fill="#d32b39"/><path d="m383.431 128h-15.431a40 40 0 0 0 -40 40h64v56l32 8v-62.627a41.941 41.941 0 0 0 -12.284-29.657 40 40 0 0 0 -28.285-11.716z" fill="#961b20"/><path d="m328 248v215.539a24.462 24.462 0 0 0 24.461 24.461 24.462 24.462 0 0 0 24.444-23.521l7.095-168.479 48-16v-48l-56-16v32z" fill="#e82f3e"/><rect fill="#2c91ff" height="96" rx="16" width="32" x="264" y="144"/><rect fill="#2c91ff" height="96" rx="16" width="32" x="56" y="144"/><path d="m152 104h48v40h-48z" fill="#007af6"/><path d="m120 48h112v24h-112z" fill="#fd7422"/><path d="m160 72h32v32h-32z" fill="#dc651e"/><rect fill="#2c91ff" height="128" rx="54.857" width="109.714" x="120" y="128"/><path d="m178 232h-2a8 8 0 0 1 0-16h2a14.015 14.015 0 0 0 14-14v-2a8 8 0 0 1 16 0v2a30.034 30.034 0 0 1 -30 30z" fill="#007af6"/><g fill="#fd9226"><circle cx="118" cy="56" r="18"/><circle cx="238" cy="56" r="18"/><circle cx="178" cy="54" r="18"/></g><path d="m488 160h-56.882a49.57 49.57 0 0 0 -13.745-25.94 47.683 47.683 0 0 0 -33.941-14.06h-15.432a48.069 48.069 0 0 0 -47.321 40h-16.679a24 24 0 0 0 -48 0h-22.606a63.207 63.207 0 0 0 -25.394-30.519v-25.481a8 8 0 0 0 -8-8v-16h28.007a26 26 0 1 0 -10.478-40h-17.637a25.969 25.969 0 0 0 -43.784 0h-17.637a25.991 25.991 0 1 0 -10.477 40h24.006v16a8 8 0 0 0 -8 8v24.127a63.208 63.208 0 0 0 -27.679 31.873h-20.321a24 24 0 0 0 -48 0h-24a8 8 0 0 0 -8 8v48a8 8 0 0 0 8 8h24a24 24 0 0 0 48 0h20.321a62.832 62.832 0 0 0 117.073 0h22.606a24 24 0 0 0 48 0h8v24a8 8 0 0 0 8 8v207.539a32.461 32.461 0 0 0 64.9 1.276l6.864-162.969 42.766-14.256a8 8 0 0 0 5.47-7.59v-48a8 8 0 0 0 -5.8-7.692l-1.079-.308h54.879a8 8 0 0 0 8-8v-48a8 8 0 0 0 -8-8zm-120-24h15.432a31.787 31.787 0 0 1 22.627 9.373 33.716 33.716 0 0 1 9.941 24v49.735l-16-4.571v-46.537a8 8 0 0 0 -8-8h-54.988a32.058 32.058 0 0 1 30.988-24zm-40 104v-16h40v16zm-90-194a10 10 0 1 1 -10 10 10.011 10.011 0 0 1 10-10zm-24.735 18h-11.265a25.805 25.805 0 0 0 1.919-8h8.081a25.882 25.882 0 0 0 1.265 8zm-35.265-20a10 10 0 1 1 -10 10 10.011 10.011 0 0 1 10-10zm-25.916 12a25.805 25.805 0 0 0 1.916 8h-11.265a25.882 25.882 0 0 0 1.265-8zm-44.084 0a10 10 0 1 1 10 10 10.011 10.011 0 0 1 -10-10zm60 24h16v16h-16zm-8 32h32v10.4a62.538 62.538 0 0 0 -32-.606zm-128 96v-32h16v32zm48 16a8 8 0 0 1 -16 0v-64a8 8 0 0 1 16 0zm16-16v-32h16.381a63.139 63.139 0 0 0 -.381 6.857v18.286a63.139 63.139 0 0 0 .381 6.857zm78.857 40a46.911 46.911 0 0 1 -46.857-46.857v-18.286a46.857 46.857 0 0 1 93.714 0v18.286a46.911 46.911 0 0 1 -46.857 46.857zm62.476-40a63.139 63.139 0 0 0 .381-6.857v-18.286a63.139 63.139 0 0 0 -.381-6.857h18.667v32zm50.667 16a8 8 0 0 1 -16 0v-64a8 8 0 0 1 16 0zm16-48h80v33.965s-7.677-1.951-7.79-1.954c-.071 0-72.21-.011-72.21-.011zm120 98.234-42.53 14.176a8 8 0 0 0 -5.463 7.253l-7.1 168.508a16.462 16.462 0 0 1 -32.907-.632v-207.539h40a8 8 0 0 0 8-8v-21.4l40 11.429zm56-66.234h-48v-32h48z"/><path d="m200 192a8 8 0 0 0 -8 8v2a14.015 14.015 0 0 1 -14 14h-2a8 8 0 0 0 0 16h2a30.034 30.034 0 0 0 30-30v-2a8 8 0 0 0 -8-8z"/></g></svg>